<svg width="20" height="20" viewBox="0 0 20 20" fill="none" xmlns="http://www.w3.org/2000/svg">
<path d="M9.83967 4.80459C7.16857 4.80459 5.01406 6.95911 5.01406 9.63021C5.01406 12.3013 7.16857 14.4558 9.83967 14.4558C12.5108 14.4558 14.6653 12.3013 14.6653 9.63021C14.6653 6.95911 12.5108 4.80459 9.83967 4.80459ZM9.83967 12.7675C8.11354 12.7675 6.70239 11.3605 6.70239 9.63021C6.70239 7.89988 8.10934 6.49293 9.83967 6.49293C11.57 6.49293 12.977 7.89988 12.977 9.63021C12.977 11.3605 11.5658 12.7675 9.83967 12.7675ZM15.9882 4.6072C15.9882 5.23298 15.4843 5.73276 14.8627 5.73276C14.2369 5.73276 13.7371 5.22878 13.7371 4.6072C13.7371 3.98563 14.2411 3.48165 14.8627 3.48165C15.4843 3.48165 15.9882 3.98563 15.9882 4.6072ZM19.1843 5.74956C19.1129 4.24182 18.7685 2.90627 17.664 1.80591C16.5636 0.705553 15.2281 0.361166 13.7203 0.285569C12.1664 0.197372 7.50876 0.197372 5.95482 0.285569C4.45128 0.356966 3.11573 0.701353 2.01117 1.80171C0.906614 2.90207 0.566427 4.23762 0.49083 5.74536C0.402633 7.2993 0.402633 11.9569 0.49083 13.5109C0.562227 15.0186 0.906614 16.3542 2.01117 17.4545C3.11573 18.5549 4.44708 18.8993 5.95482 18.9748C7.50876 19.063 12.1664 19.063 13.7203 18.9748C15.2281 18.9035 16.5636 18.5591 17.664 17.4545C18.7643 16.3542 19.1087 15.0186 19.1843 13.5109C19.2725 11.9569 19.2725 7.3035 19.1843 5.74956ZM17.1768 15.1782C16.8492 16.0014 16.215 16.6355 15.3877 16.9673C14.1487 17.4587 11.2088 17.3453 9.83967 17.3453C8.47052 17.3453 5.52644 17.4545 4.29168 16.9673C3.46852 16.6397 2.83434 16.0056 2.50255 15.1782C2.01117 13.9392 2.12457 10.9994 2.12457 9.63021C2.12457 8.26106 2.01537 5.31698 2.50255 4.08222C2.83014 3.25905 3.46432 2.62488 4.29168 2.29309C5.53064 1.80171 8.47052 1.91511 9.83967 1.91511C11.2088 1.91511 14.1529 1.80591 15.3877 2.29309C16.2108 2.62068 16.845 3.25485 17.1768 4.08222C17.6682 5.32118 17.5548 8.26106 17.5548 9.63021C17.5548 10.9994 17.6682 13.9434 17.1768 15.1782Z" fill="white"/>
</svg>
