<svg width="395" height="323" viewBox="0 0 395 323" fill="none" xmlns="http://www.w3.org/2000/svg">
<g opacity="0.4">
<mask id="path-1-outside-1_3_1779" maskUnits="userSpaceOnUse" x="244.797" y="229.064" width="102" height="94" fill="black">
<rect fill="white" x="244.797" y="229.064" width="102" height="94"/>
<path fill-rule="evenodd" clip-rule="evenodd" d="M302.08 231.064L345.247 231.064L345.247 231.064L345.247 257.319L345.247 258.186L345.247 267.271V303.609H318.889L318.889 267.967L303.721 283.134L296.264 290.592L266.435 320.421L247.797 301.783L292.261 257.319L259.071 257.319L259.071 231.064L291.289 231.064L302.08 231.064Z"/>
</mask>
<path d="M345.247 231.064L346.784 231.048L346.768 229.526L345.247 229.526V231.064ZM302.08 231.064V232.601V231.064ZM345.247 231.064L346.784 231.064V231.057L346.784 231.049L345.247 231.064ZM345.247 257.319H343.709V257.319L345.247 257.319ZM345.247 258.186L346.784 258.186V258.186L345.247 258.186ZM345.247 267.271H343.709H345.247ZM345.247 303.609V305.147H346.784V303.609H345.247ZM318.889 303.609H317.352V305.147H318.889V303.609ZM318.889 267.967H320.426V264.255L317.802 266.879L318.889 267.967ZM303.721 283.134L304.808 284.222L303.721 283.134ZM296.264 290.592L295.177 289.505L296.264 290.592ZM266.435 320.421L265.348 321.508L266.435 322.595L267.522 321.508L266.435 320.421ZM247.797 301.783L246.71 300.696L245.623 301.783L246.71 302.87L247.797 301.783ZM292.261 257.319L293.348 258.406L295.973 255.782H292.261V257.319ZM259.071 257.319H257.533V258.856H259.071V257.319ZM259.071 231.064V229.526L257.533 229.526V231.064L259.071 231.064ZM291.289 231.064V232.601V231.064ZM345.247 229.526L302.08 229.526V232.601L345.247 232.601V229.526ZM346.784 231.049L346.784 231.048L343.709 231.079L343.709 231.08L346.784 231.049ZM346.784 257.319L346.784 231.064L343.709 231.064L343.709 257.319L346.784 257.319ZM346.784 258.186L346.784 257.319L343.709 257.319L343.709 258.186L346.784 258.186ZM346.784 267.271L346.784 258.186L343.709 258.186L343.709 267.271H346.784ZM346.784 303.609V267.271H343.709V303.609H346.784ZM318.889 305.147H345.247V302.072H318.889V305.147ZM317.352 267.967L317.352 303.609H320.426L320.426 267.967H317.352ZM317.802 266.879L302.634 282.047L304.808 284.222L319.976 269.054L317.802 266.879ZM302.634 282.047L295.177 289.505L297.351 291.679L304.808 284.222L302.634 282.047ZM295.177 289.505L265.348 319.333L267.522 321.508L297.351 291.679L295.177 289.505ZM267.522 319.333L248.884 300.696L246.71 302.87L265.348 321.508L267.522 319.333ZM248.884 302.87L293.348 258.406L291.174 256.232L246.71 300.696L248.884 302.87ZM259.071 258.856L292.261 258.856V255.782L259.071 255.782V258.856ZM257.533 231.064L257.533 257.319H260.608L260.608 231.064L257.533 231.064ZM291.289 229.526L259.071 229.526V232.601L291.289 232.601V229.526ZM302.08 229.526L291.289 229.526V232.601L302.08 232.601V229.526Z" fill="url(#paint0_linear_3_1779)" mask="url(#path-1-outside-1_3_1779)"/>
<mask id="path-3-outside-2_3_1779" maskUnits="userSpaceOnUse" x="367.519" y="114.433" width="102" height="94" fill="black">
<rect fill="white" x="367.519" y="114.433" width="102" height="94"/>
<path fill-rule="evenodd" clip-rule="evenodd" d="M467.97 152.64V188.978H441.612L441.612 153.335L426.443 168.504L418.986 175.961L389.157 205.79L370.519 187.152L414.982 142.689L381.793 142.689L381.793 116.434L414.011 116.434L424.803 116.434L441.612 116.434V116.433L467.97 116.433V143.555L467.97 152.64Z"/>
</mask>
<path d="M467.97 188.978V190.515H469.507V188.978H467.97ZM467.97 152.64H466.432H467.97ZM441.612 188.978L440.075 188.978V190.515H441.612V188.978ZM441.612 153.335H443.149V149.623L440.525 152.248L441.612 153.335ZM426.443 168.504L427.53 169.591L426.443 168.504ZM418.986 175.961L417.898 174.874L418.986 175.961ZM389.157 205.79L388.07 206.877L389.157 207.964L390.244 206.877L389.157 205.79ZM370.519 187.152L369.432 186.065L368.345 187.152L369.432 188.239L370.519 187.152ZM414.982 142.689L416.069 143.776L418.694 141.152H414.982V142.689ZM381.793 142.689H380.256V144.227L381.793 144.227V142.689ZM381.793 116.434V114.897L380.256 114.897V116.434L381.793 116.434ZM414.011 116.434V117.971V116.434ZM424.803 116.434V114.897V116.434ZM441.612 116.434V117.971H443.149V116.434H441.612ZM441.612 116.433V114.896L440.075 114.896V116.433H441.612ZM467.97 116.433H469.507V114.896L467.97 114.896V116.433ZM467.97 143.555L469.507 143.555V143.555H467.97ZM469.507 188.978V152.64H466.432V188.978H469.507ZM441.612 190.515H467.97V187.441H441.612V190.515ZM440.075 153.335L440.075 188.978L443.149 188.978L443.149 153.335H440.075ZM440.525 152.248L425.356 167.417L427.53 169.591L442.699 154.422L440.525 152.248ZM425.356 167.417L417.898 174.874L420.073 177.048L427.53 169.591L425.356 167.417ZM417.898 174.874L388.07 204.703L390.244 206.877L420.073 177.048L417.898 174.874ZM390.244 204.703L371.606 186.065L369.432 188.239L388.07 206.877L390.244 204.703ZM371.606 188.239L416.069 143.776L413.895 141.602L369.432 186.065L371.606 188.239ZM381.793 144.227L414.982 144.227V141.152L381.793 141.152V144.227ZM380.256 116.434L380.256 142.689H383.331L383.331 116.434L380.256 116.434ZM414.011 114.897L381.793 114.897V117.971L414.011 117.971V114.897ZM424.803 114.897L414.011 114.897V117.971L424.803 117.971V114.897ZM441.612 114.897L424.803 114.897V117.971L441.612 117.971V114.897ZM440.075 116.433V116.434H443.149V116.433H440.075ZM467.97 114.896L441.612 114.896V117.971L467.97 117.971V114.896ZM469.507 143.555V116.433H466.432V143.555H469.507ZM469.507 152.64L469.507 143.555L466.432 143.555L466.432 152.64H469.507Z" fill="url(#paint1_linear_3_1779)" mask="url(#path-3-outside-2_3_1779)"/>
</g>
<g opacity="0.4">
<mask id="path-5-outside-3_3_1779" maskUnits="userSpaceOnUse" x="-0.651001" y="229.064" width="102" height="94" fill="black">
<rect fill="white" x="-0.651001" y="229.064" width="102" height="94"/>
<path fill-rule="evenodd" clip-rule="evenodd" d="M56.6322 231.064L99.7982 231.064L99.7982 231.064L99.7982 257.319L99.7982 258.186L99.7982 267.271V303.609H73.4406L73.4406 267.967L58.2727 283.134L50.8155 290.592L20.9866 320.421L2.349 301.783L46.813 257.319L13.6225 257.319L13.6225 231.064L45.8407 231.064L56.6322 231.064Z"/>
</mask>
<path d="M99.7982 231.064L101.336 231.048L101.32 229.526L99.7982 229.526V231.064ZM56.6322 231.064V232.601V231.064ZM99.7982 231.064L101.336 231.064V231.057L101.336 231.049L99.7982 231.064ZM99.7982 257.319H98.2608V257.319L99.7982 257.319ZM99.7982 258.186L101.336 258.186V258.186L99.7982 258.186ZM99.7982 267.271H98.2608H99.7982ZM99.7982 303.609V305.147H101.336V303.609H99.7982ZM73.4406 303.609H71.9032V305.147H73.4406V303.609ZM73.4406 267.967H74.978V264.255L72.3535 266.879L73.4406 267.967ZM58.2727 283.134L59.3598 284.222L58.2727 283.134ZM50.8155 290.592L49.7284 289.505L50.8155 290.592ZM20.9866 320.421L19.8995 321.508L20.9866 322.595L22.0738 321.508L20.9866 320.421ZM2.349 301.783L1.26189 300.696L0.174784 301.783L1.26189 302.87L2.349 301.783ZM46.813 257.319L47.9001 258.406L50.5246 255.782H46.813V257.319ZM13.6225 257.319H12.0851V258.856H13.6225V257.319ZM13.6225 231.064V229.526L12.0851 229.526V231.064L13.6225 231.064ZM45.8407 231.064V232.601V231.064ZM99.7982 229.526L56.6322 229.526V232.601L99.7982 232.601V229.526ZM101.336 231.049L101.336 231.048L98.2609 231.079L98.2609 231.08L101.336 231.049ZM101.336 257.319L101.336 231.064L98.2608 231.064L98.2608 257.319L101.336 257.319ZM101.336 258.186L101.336 257.319L98.2608 257.319L98.2608 258.186L101.336 258.186ZM101.336 267.271L101.336 258.186L98.2608 258.186L98.2608 267.271H101.336ZM101.336 303.609V267.271H98.2608V303.609H101.336ZM73.4406 305.147H99.7982V302.072H73.4406V305.147ZM71.9032 267.967L71.9032 303.609H74.978L74.978 267.967H71.9032ZM72.3535 266.879L57.1856 282.047L59.3598 284.222L74.5277 269.054L72.3535 266.879ZM57.1856 282.047L49.7284 289.505L51.9026 291.679L59.3598 284.222L57.1856 282.047ZM49.7284 289.505L19.8995 319.333L22.0738 321.508L51.9026 291.679L49.7284 289.505ZM22.0738 319.333L3.43611 300.696L1.26189 302.87L19.8995 321.508L22.0738 319.333ZM3.43611 302.87L47.9001 258.406L45.7259 256.232L1.26189 300.696L3.43611 302.87ZM13.6225 258.856L46.813 258.856V255.782L13.6225 255.782V258.856ZM12.0851 231.064L12.0851 257.319H15.1599L15.1599 231.064L12.0851 231.064ZM45.8407 229.526L13.6225 229.526V232.601L45.8407 232.601V229.526ZM56.6322 229.526L45.8407 229.526V232.601L56.6322 232.601V229.526Z" fill="url(#paint2_linear_3_1779)" mask="url(#path-5-outside-3_3_1779)"/>
<mask id="path-7-outside-4_3_1779" maskUnits="userSpaceOnUse" x="122.071" y="114.433" width="102" height="94" fill="black">
<rect fill="white" x="122.071" y="114.433" width="102" height="94"/>
<path fill-rule="evenodd" clip-rule="evenodd" d="M222.521 152.64V188.978H196.164L196.164 153.335L180.994 168.504L173.537 175.961L143.708 205.79L125.071 187.152L169.534 142.689L136.345 142.689L136.345 116.434L168.563 116.434L179.355 116.434L196.164 116.434V116.433L222.521 116.433V143.555L222.521 152.64Z"/>
</mask>
<path d="M222.521 188.978V190.515H224.059V188.978H222.521ZM222.521 152.64H220.984H222.521ZM196.164 188.978L194.626 188.978V190.515H196.164V188.978ZM196.164 153.335H197.701V149.623L195.077 152.248L196.164 153.335ZM180.994 168.504L182.082 169.591L180.994 168.504ZM173.537 175.961L172.45 174.874L173.537 175.961ZM143.708 205.79L142.621 206.877L143.708 207.964L144.795 206.877L143.708 205.79ZM125.071 187.152L123.984 186.065L122.897 187.152L123.984 188.239L125.071 187.152ZM169.534 142.689L170.621 143.776L173.245 141.152H169.534V142.689ZM136.345 142.689H134.808V144.227L136.345 144.227V142.689ZM136.345 116.434V114.897L134.808 114.897V116.434L136.345 116.434ZM168.563 116.434V117.971V116.434ZM179.355 116.434V114.897V116.434ZM196.164 116.434V117.971H197.701V116.434H196.164ZM196.164 116.433V114.896L194.626 114.896V116.433H196.164ZM222.521 116.433H224.059V114.896L222.521 114.896V116.433ZM222.521 143.555L224.059 143.555V143.555H222.521ZM224.059 188.978V152.64H220.984V188.978H224.059ZM196.164 190.515H222.521V187.441H196.164V190.515ZM194.626 153.335L194.626 188.978L197.701 188.978L197.701 153.335H194.626ZM195.077 152.248L179.907 167.417L182.082 169.591L197.251 154.422L195.077 152.248ZM179.907 167.417L172.45 174.874L174.624 177.048L182.082 169.591L179.907 167.417ZM172.45 174.874L142.621 204.703L144.795 206.877L174.624 177.048L172.45 174.874ZM144.795 204.703L126.158 186.065L123.984 188.239L142.621 206.877L144.795 204.703ZM126.158 188.239L170.621 143.776L168.447 141.602L123.984 186.065L126.158 188.239ZM136.345 144.227L169.534 144.227V141.152L136.345 141.152V144.227ZM134.808 116.434L134.808 142.689H137.882L137.882 116.434L134.808 116.434ZM168.563 114.897L136.345 114.897V117.971L168.563 117.971V114.897ZM179.355 114.897L168.563 114.897V117.971L179.355 117.971V114.897ZM196.164 114.897L179.355 114.897V117.971L196.164 117.971V114.897ZM194.626 116.433V116.434H197.701V116.433H194.626ZM222.521 114.896L196.164 114.896V117.971L222.521 117.971V114.896ZM224.059 143.555V116.433H220.984V143.555H224.059ZM224.059 152.64L224.059 143.555L220.984 143.555L220.984 152.64H224.059Z" fill="url(#paint3_linear_3_1779)" mask="url(#path-7-outside-4_3_1779)"/>
<mask id="path-9-outside-5_3_1779" maskUnits="userSpaceOnUse" x="244.796" y="-0.194824" width="102" height="94" fill="black">
<rect fill="white" x="244.796" y="-0.194824" width="102" height="94"/>
<path fill-rule="evenodd" clip-rule="evenodd" d="M302.079 1.80518L345.245 1.80518V1.80553L345.247 1.80553V28.9275L345.247 38.012V74.3502H318.889L318.889 38.7062L303.719 53.8759L296.262 61.3331L266.433 91.162L247.796 72.5243L292.26 28.0604L259.07 28.0604L259.07 1.80518L291.288 1.80518L302.079 1.80518Z"/>
</mask>
<path d="M345.245 1.80518L346.783 1.80518V0.267778L345.245 0.267778V1.80518ZM302.079 1.80518V3.34258V1.80518ZM345.245 1.80553H343.708V3.34293L345.245 3.34293V1.80553ZM345.247 1.80553L346.784 1.80553V0.268127L345.247 0.268127V1.80553ZM345.247 28.9275L346.784 28.9275V28.9275H345.247ZM345.247 38.012H343.709H345.247ZM345.247 74.3502V75.8876H346.784V74.3502H345.247ZM318.889 74.3502H317.352V75.8876H318.889V74.3502ZM318.889 38.7062H320.427V34.9946L317.802 37.6191L318.889 38.7062ZM303.719 53.8759L304.806 54.963L303.719 53.8759ZM296.262 61.3331L295.175 60.246L296.262 61.3331ZM266.433 91.162L265.346 92.2491L266.433 93.3362L267.52 92.2491L266.433 91.162ZM247.796 72.5243L246.709 71.4372L245.621 72.5243L246.709 73.6114L247.796 72.5243ZM292.26 28.0604L293.347 29.1475L295.971 26.523H292.26V28.0604ZM259.07 28.0604H257.532V29.5978H259.07V28.0604ZM259.07 1.80518V0.267774L257.532 0.267774V1.80518L259.07 1.80518ZM291.288 1.80518V0.267775V1.80518ZM345.245 0.267778L302.079 0.267778V3.34258L345.245 3.34258V0.267778ZM346.783 1.80553V1.80518L343.708 1.80518V1.80553L346.783 1.80553ZM345.247 0.268127H345.245V3.34293H345.247V0.268127ZM346.784 28.9275V1.80553L343.709 1.80553V28.9275L346.784 28.9275ZM346.784 38.012L346.784 28.9275L343.709 28.9275L343.709 38.012H346.784ZM346.784 74.3502V38.012H343.709V74.3502H346.784ZM318.889 75.8876H345.247V72.8128H318.889V75.8876ZM317.352 38.7062L317.352 74.3502L320.426 74.3502L320.427 38.7062H317.352ZM317.802 37.6191L302.632 52.7888L304.806 54.963L319.976 39.7933L317.802 37.6191ZM302.632 52.7888L295.175 60.246L297.349 62.4202L304.806 54.963L302.632 52.7888ZM295.175 60.246L265.346 90.0749L267.52 92.2491L297.349 62.4202L295.175 60.246ZM267.52 90.0749L248.883 71.4372L246.709 73.6114L265.346 92.2491L267.52 90.0749ZM248.883 73.6114L293.347 29.1475L291.173 26.9733L246.709 71.4372L248.883 73.6114ZM259.07 29.5978L292.26 29.5978V26.523L259.07 26.523V29.5978ZM257.532 1.80518L257.532 28.0604H260.607L260.607 1.80518L257.532 1.80518ZM291.288 0.267775L259.07 0.267774V3.34258L291.288 3.34258V0.267775ZM302.079 0.267778L291.288 0.267775V3.34258L302.079 3.34258V0.267778Z" fill="url(#paint4_linear_3_1779)" mask="url(#path-9-outside-5_3_1779)"/>
</g>
<defs>
<linearGradient id="paint0_linear_3_1779" x1="296.522" y1="231.064" x2="296.522" y2="320.42" gradientUnits="userSpaceOnUse">
<stop stop-color="#87F1FF"/>
<stop offset="1" stop-color="#1235ED"/>
</linearGradient>
<linearGradient id="paint1_linear_3_1779" x1="419.244" y1="116.433" x2="419.244" y2="205.79" gradientUnits="userSpaceOnUse">
<stop stop-color="#87F1FF"/>
<stop offset="1" stop-color="#1235ED"/>
</linearGradient>
<linearGradient id="paint2_linear_3_1779" x1="51.0736" y1="231.064" x2="51.0736" y2="320.42" gradientUnits="userSpaceOnUse">
<stop stop-color="#87F1FF"/>
<stop offset="1" stop-color="#1235ED"/>
</linearGradient>
<linearGradient id="paint3_linear_3_1779" x1="173.796" y1="116.433" x2="173.796" y2="205.79" gradientUnits="userSpaceOnUse">
<stop stop-color="#87F1FF"/>
<stop offset="1" stop-color="#1235ED"/>
</linearGradient>
<linearGradient id="paint4_linear_3_1779" x1="296.521" y1="1.80518" x2="296.521" y2="91.1619" gradientUnits="userSpaceOnUse">
<stop stop-color="#87F1FF"/>
<stop offset="1" stop-color="#1235ED"/>
</linearGradient>
</defs>
</svg>
