<svg width="22" height="21" viewBox="0 0 22 21" fill="none" xmlns="http://www.w3.org/2000/svg">
<path d="M19.6989 4.89005C16.6057 0.121424 10.2905 -1.29628 5.39299 1.66801C0.624365 4.63229 -0.922216 11.0764 2.17095 15.845L2.42871 16.2317L1.39766 20.0981L5.26411 19.0671L5.65076 19.3248C7.32622 20.227 9.13057 20.7425 10.9349 20.7425C12.8681 20.7425 14.8014 20.227 16.4768 19.1959C21.2455 16.1028 22.6632 9.78756 19.6989 4.89005ZM16.9924 14.814C16.4768 15.5872 15.8324 16.1028 14.9303 16.2317C14.4147 16.2317 13.7703 16.4894 11.1927 15.4584C9.00169 14.4273 7.19734 12.7518 5.90852 10.8186C5.13523 9.91644 4.74858 8.75651 4.6197 7.59657C4.6197 6.56552 5.00635 5.66334 5.65076 5.01893C5.90852 4.76117 6.16628 4.63229 6.42405 4.63229H7.06846C7.32622 4.63229 7.58398 4.63229 7.71287 5.14782C7.97063 5.79223 8.61504 7.33881 8.61504 7.46769C8.74392 7.59657 8.74392 7.85434 8.61504 7.98322C8.74392 8.24098 8.61504 8.49874 8.48616 8.62763C8.35728 8.75651 8.22839 9.01427 8.09951 9.14315C7.84175 9.27203 7.71287 9.5298 7.84175 9.78756C8.35728 10.5609 9.00169 11.3341 9.64609 11.9786C10.4194 12.623 11.1927 13.1385 12.0948 13.5251C12.3526 13.654 12.6104 13.654 12.7393 13.3963C12.8681 13.1385 13.5125 12.4941 13.7703 12.2363C14.0281 11.9786 14.157 11.9786 14.4147 12.1074L16.4768 13.1385C16.7346 13.2674 16.9924 13.3963 17.1212 13.5251C17.2501 13.9118 17.2501 14.4273 16.9924 14.814Z" fill="#060A15"/>
</svg>
